<svg width="259" height="64" viewBox="0 0 259 64" fill="none" xmlns="http://www.w3.org/2000/svg">
<path d="M40.696 37.816C41.048 37.816 41.36 37.952 41.632 38.224L44.176 40.984C42.768 42.728 41.032 44.064 38.968 44.992C36.92 45.92 34.456 46.384 31.576 46.384C29 46.384 26.68 45.944 24.616 45.064C22.568 44.184 20.816 42.96 19.36 41.392C17.904 39.824 16.784 37.952 16 35.776C15.232 33.6 14.848 31.224 14.848 28.648C14.848 26.04 15.264 23.656 16.096 21.496C16.928 19.32 18.096 17.448 19.6 15.88C21.12 14.312 22.928 13.096 25.024 12.232C27.12 11.352 29.44 10.912 31.984 10.912C34.512 10.912 36.752 11.328 38.704 12.16C40.672 12.992 42.344 14.08 43.72 15.424L41.56 18.424C41.432 18.616 41.264 18.784 41.056 18.928C40.864 19.072 40.592 19.144 40.24 19.144C40 19.144 39.752 19.08 39.496 18.952C39.24 18.808 38.96 18.64 38.656 18.448C38.352 18.24 38 18.016 37.6 17.776C37.2 17.536 36.736 17.32 36.208 17.128C35.68 16.92 35.064 16.752 34.36 16.624C33.672 16.48 32.872 16.408 31.96 16.408C30.408 16.408 28.984 16.688 27.688 17.248C26.408 17.792 25.304 18.592 24.376 19.648C23.448 20.688 22.728 21.968 22.216 23.488C21.704 24.992 21.448 26.712 21.448 28.648C21.448 30.6 21.72 32.336 22.264 33.856C22.824 35.376 23.576 36.656 24.52 37.696C25.464 38.736 26.576 39.536 27.856 40.096C29.136 40.64 30.512 40.912 31.984 40.912C32.864 40.912 33.656 40.864 34.36 40.768C35.08 40.672 35.736 40.52 36.328 40.312C36.936 40.104 37.504 39.84 38.032 39.52C38.576 39.184 39.112 38.776 39.64 38.296C39.8 38.152 39.968 38.04 40.144 37.96C40.32 37.864 40.504 37.816 40.696 37.816ZM53.1606 25.648C53.9286 24.176 54.8406 23.024 55.8966 22.192C56.9526 21.344 58.2006 20.92 59.6406 20.92C60.7766 20.92 61.6886 21.168 62.3766 21.664L61.9926 26.104C61.9126 26.392 61.7926 26.6 61.6326 26.728C61.4886 26.84 61.2886 26.896 61.0326 26.896C60.7926 26.896 60.4326 26.856 59.9526 26.776C59.4886 26.696 59.0326 26.656 58.5846 26.656C57.9286 26.656 57.3446 26.752 56.8326 26.944C56.3206 27.136 55.8566 27.416 55.4406 27.784C55.0406 28.136 54.6806 28.568 54.3606 29.08C54.0566 29.592 53.7686 30.176 53.4966 30.832V46H47.5686V21.376H51.0486C51.6566 21.376 52.0806 21.488 52.3206 21.712C52.5606 21.92 52.7206 22.304 52.8006 22.864L53.1606 25.648ZM80.6358 30.856C80.6358 30.088 80.5238 29.368 80.2998 28.696C80.0918 28.008 79.7718 27.408 79.3398 26.896C78.9078 26.384 78.3558 25.984 77.6838 25.696C77.0278 25.392 76.2598 25.24 75.3798 25.24C73.6678 25.24 72.3158 25.728 71.3238 26.704C70.3478 27.68 69.7238 29.064 69.4518 30.856H80.6358ZM69.3318 34.432C69.4278 35.696 69.6518 36.792 70.0038 37.72C70.3558 38.632 70.8198 39.392 71.3958 40C71.9718 40.592 72.6518 41.04 73.4358 41.344C74.2358 41.632 75.1158 41.776 76.0758 41.776C77.0358 41.776 77.8598 41.664 78.5478 41.44C79.2518 41.216 79.8598 40.968 80.3718 40.696C80.8998 40.424 81.3558 40.176 81.7398 39.952C82.1398 39.728 82.5238 39.616 82.8918 39.616C83.3878 39.616 83.7558 39.8 83.9958 40.168L85.6998 42.328C85.0438 43.096 84.3078 43.744 83.4918 44.272C82.6758 44.784 81.8198 45.2 80.9238 45.52C80.0438 45.824 79.1398 46.04 78.2118 46.168C77.2998 46.296 76.4118 46.36 75.5478 46.36C73.8358 46.36 72.2438 46.08 70.7718 45.52C69.2998 44.944 68.0198 44.104 66.9318 43C65.8438 41.88 64.9878 40.504 64.3638 38.872C63.7398 37.224 63.4277 35.32 63.4277 33.16C63.4277 31.48 63.6998 29.904 64.2438 28.432C64.7878 26.944 65.5638 25.656 66.5718 24.568C67.5958 23.464 68.8358 22.592 70.2918 21.952C71.7638 21.312 73.4198 20.992 75.2598 20.992C76.8118 20.992 78.2438 21.24 79.5558 21.736C80.8678 22.232 81.9958 22.96 82.9398 23.92C83.8838 24.864 84.6198 26.032 85.1478 27.424C85.6918 28.8 85.9637 30.376 85.9637 32.152C85.9637 33.048 85.8678 33.656 85.6758 33.976C85.4838 34.28 85.1158 34.432 84.5718 34.432H69.3318ZM105.868 27.664C105.196 26.848 104.46 26.272 103.66 25.936C102.876 25.6 102.028 25.432 101.116 25.432C100.22 25.432 99.4124 25.6 98.6924 25.936C97.9724 26.272 97.3564 26.784 96.8444 27.472C96.3324 28.144 95.9404 29.008 95.6684 30.064C95.3964 31.104 95.2604 32.336 95.2604 33.76C95.2604 35.2 95.3724 36.424 95.5964 37.432C95.8364 38.424 96.1724 39.24 96.6044 39.88C97.0364 40.504 97.5644 40.96 98.1884 41.248C98.8124 41.52 99.5084 41.656 100.276 41.656C101.508 41.656 102.556 41.4 103.42 40.888C104.284 40.376 105.1 39.648 105.868 38.704V27.664ZM111.796 10.336V46H108.172C107.388 46 106.892 45.64 106.684 44.92L106.18 42.544C105.188 43.68 104.044 44.6 102.748 45.304C101.468 46.008 99.9724 46.36 98.2604 46.36C96.9164 46.36 95.6844 46.08 94.5644 45.52C93.4444 44.96 92.4764 44.152 91.6604 43.096C90.8604 42.024 90.2364 40.704 89.7884 39.136C89.3564 37.568 89.1404 35.776 89.1404 33.76C89.1404 31.936 89.3884 30.24 89.8844 28.672C90.3804 27.104 91.0924 25.744 92.0204 24.592C92.9484 23.44 94.0604 22.544 95.3564 21.904C96.6524 21.248 98.1084 20.92 99.7244 20.92C101.1 20.92 102.276 21.136 103.252 21.568C104.228 22 105.1 22.584 105.868 23.32V10.336H111.796ZM123.647 10.336V46H117.719V10.336H123.647ZM145.417 30.856C145.417 30.088 145.305 29.368 145.081 28.696C144.873 28.008 144.553 27.408 144.121 26.896C143.689 26.384 143.137 25.984 142.465 25.696C141.809 25.392 141.041 25.24 140.161 25.24C138.449 25.24 137.097 25.728 136.105 26.704C135.129 27.68 134.505 29.064 134.233 30.856H145.417ZM134.113 34.432C134.209 35.696 134.433 36.792 134.785 37.72C135.137 38.632 135.601 39.392 136.177 40C136.753 40.592 137.433 41.04 138.217 41.344C139.017 41.632 139.897 41.776 140.857 41.776C141.817 41.776 142.641 41.664 143.329 41.44C144.033 41.216 144.641 40.968 145.153 40.696C145.681 40.424 146.137 40.176 146.521 39.952C146.921 39.728 147.305 39.616 147.673 39.616C148.169 39.616 148.537 39.8 148.777 40.168L150.481 42.328C149.825 43.096 149.089 43.744 148.273 44.272C147.457 44.784 146.601 45.2 145.705 45.52C144.825 45.824 143.921 46.04 142.993 46.168C142.081 46.296 141.193 46.36 140.329 46.36C138.617 46.36 137.025 46.08 135.553 45.52C134.081 44.944 132.801 44.104 131.713 43C130.625 41.88 129.769 40.504 129.145 38.872C128.521 37.224 128.209 35.32 128.209 33.16C128.209 31.48 128.481 29.904 129.025 28.432C129.569 26.944 130.345 25.656 131.353 24.568C132.377 23.464 133.617 22.592 135.073 21.952C136.545 21.312 138.201 20.992 140.041 20.992C141.593 20.992 143.025 21.24 144.337 21.736C145.649 22.232 146.777 22.96 147.721 23.92C148.665 24.864 149.401 26.032 149.929 27.424C150.473 28.8 150.745 30.376 150.745 32.152C150.745 33.048 150.649 33.656 150.457 33.976C150.265 34.28 149.897 34.432 149.353 34.432H134.113ZM168.202 35.488C166.49 35.568 165.05 35.72 163.882 35.944C162.714 36.152 161.778 36.424 161.074 36.76C160.37 37.096 159.866 37.488 159.562 37.936C159.258 38.384 159.106 38.872 159.106 39.4C159.106 40.44 159.41 41.184 160.018 41.632C160.642 42.08 161.45 42.304 162.442 42.304C163.658 42.304 164.706 42.088 165.586 41.656C166.482 41.208 167.354 40.536 168.202 39.64V35.488ZM154.618 24.808C157.45 22.216 160.858 20.92 164.842 20.92C166.282 20.92 167.57 21.16 168.706 21.64C169.842 22.104 170.802 22.76 171.586 23.608C172.37 24.44 172.962 25.44 173.362 26.608C173.778 27.776 173.986 29.056 173.986 30.448V46H171.298C170.738 46 170.306 45.92 170.002 45.76C169.698 45.584 169.458 45.24 169.282 44.728L168.754 42.952C168.13 43.512 167.522 44.008 166.93 44.44C166.338 44.856 165.722 45.208 165.082 45.496C164.442 45.784 163.754 46 163.018 46.144C162.298 46.304 161.498 46.384 160.618 46.384C159.578 46.384 158.618 46.248 157.738 45.976C156.858 45.688 156.098 45.264 155.458 44.704C154.818 44.144 154.322 43.448 153.97 42.616C153.618 41.784 153.442 40.816 153.442 39.712C153.442 39.088 153.546 38.472 153.754 37.864C153.962 37.24 154.298 36.648 154.762 36.088C155.242 35.528 155.858 35 156.61 34.504C157.362 34.008 158.282 33.576 159.37 33.208C160.474 32.84 161.754 32.544 163.21 32.32C164.666 32.08 166.33 31.936 168.202 31.888V30.448C168.202 28.8 167.85 27.584 167.146 26.8C166.442 26 165.426 25.6 164.098 25.6C163.138 25.6 162.338 25.712 161.698 25.936C161.074 26.16 160.522 26.416 160.042 26.704C159.562 26.976 159.122 27.224 158.722 27.448C158.338 27.672 157.906 27.784 157.426 27.784C157.01 27.784 156.658 27.68 156.37 27.472C156.082 27.248 155.85 26.992 155.674 26.704L154.618 24.808ZM180.875 46V25.84L178.739 25.504C178.275 25.408 177.899 25.248 177.611 25.024C177.339 24.784 177.203 24.448 177.203 24.016V21.592H180.875V19.768C180.875 18.36 181.083 17.096 181.499 15.976C181.931 14.856 182.539 13.904 183.323 13.12C184.123 12.336 185.091 11.736 186.227 11.32C187.363 10.904 188.643 10.696 190.067 10.696C191.203 10.696 192.259 10.848 193.235 11.152L193.115 14.128C193.099 14.352 193.035 14.536 192.923 14.68C192.811 14.808 192.659 14.912 192.467 14.992C192.291 15.056 192.083 15.104 191.843 15.136C191.603 15.152 191.347 15.16 191.075 15.16C190.371 15.16 189.739 15.24 189.179 15.4C188.635 15.544 188.171 15.808 187.787 16.192C187.403 16.56 187.107 17.056 186.899 17.68C186.707 18.288 186.611 19.048 186.611 19.96V21.592H193.019V25.816H186.803V46H180.875Z" fill="#0F766E"/>
<path d="M42.696 39.816C43.048 39.816 43.36 39.952 43.632 40.224L46.176 42.984C44.768 44.728 43.032 46.064 40.968 46.992C38.92 47.92 36.456 48.384 33.576 48.384C31 48.384 28.68 47.944 26.616 47.064C24.568 46.184 22.816 44.96 21.36 43.392C19.904 41.824 18.784 39.952 18 37.776C17.232 35.6 16.848 33.224 16.848 30.648C16.848 28.04 17.264 25.656 18.096 23.496C18.928 21.32 20.096 19.448 21.6 17.88C23.12 16.312 24.928 15.096 27.024 14.232C29.12 13.352 31.44 12.912 33.984 12.912C36.512 12.912 38.752 13.328 40.704 14.16C42.672 14.992 44.344 16.08 45.72 17.424L43.56 20.424C43.432 20.616 43.264 20.784 43.056 20.928C42.864 21.072 42.592 21.144 42.24 21.144C42 21.144 41.752 21.08 41.496 20.952C41.24 20.808 40.96 20.64 40.656 20.448C40.352 20.24 40 20.016 39.6 19.776C39.2 19.536 38.736 19.32 38.208 19.128C37.68 18.92 37.064 18.752 36.36 18.624C35.672 18.48 34.872 18.408 33.96 18.408C32.408 18.408 30.984 18.688 29.688 19.248C28.408 19.792 27.304 20.592 26.376 21.648C25.448 22.688 24.728 23.968 24.216 25.488C23.704 26.992 23.448 28.712 23.448 30.648C23.448 32.6 23.72 34.336 24.264 35.856C24.824 37.376 25.576 38.656 26.52 39.696C27.464 40.736 28.576 41.536 29.856 42.096C31.136 42.64 32.512 42.912 33.984 42.912C34.864 42.912 35.656 42.864 36.36 42.768C37.08 42.672 37.736 42.52 38.328 42.312C38.936 42.104 39.504 41.84 40.032 41.52C40.576 41.184 41.112 40.776 41.64 40.296C41.8 40.152 41.968 40.04 42.144 39.96C42.32 39.864 42.504 39.816 42.696 39.816ZM55.1606 27.648C55.9286 26.176 56.8406 25.024 57.8966 24.192C58.9526 23.344 60.2006 22.92 61.6406 22.92C62.7766 22.92 63.6886 23.168 64.3766 23.664L63.9926 28.104C63.9126 28.392 63.7926 28.6 63.6326 28.728C63.4886 28.84 63.2886 28.896 63.0326 28.896C62.7926 28.896 62.4326 28.856 61.9526 28.776C61.4886 28.696 61.0326 28.656 60.5846 28.656C59.9286 28.656 59.3446 28.752 58.8326 28.944C58.3206 29.136 57.8566 29.416 57.4406 29.784C57.0406 30.136 56.6806 30.568 56.3606 31.08C56.0566 31.592 55.7686 32.176 55.4966 32.832V48H49.5686V23.376H53.0486C53.6566 23.376 54.0806 23.488 54.3206 23.712C54.5606 23.92 54.7206 24.304 54.8006 24.864L55.1606 27.648ZM82.6358 32.856C82.6358 32.088 82.5238 31.368 82.2998 30.696C82.0918 30.008 81.7718 29.408 81.3398 28.896C80.9078 28.384 80.3558 27.984 79.6838 27.696C79.0278 27.392 78.2598 27.24 77.3798 27.24C75.6678 27.24 74.3158 27.728 73.3238 28.704C72.3478 29.68 71.7238 31.064 71.4518 32.856H82.6358ZM71.3318 36.432C71.4278 37.696 71.6518 38.792 72.0038 39.72C72.3558 40.632 72.8198 41.392 73.3958 42C73.9718 42.592 74.6518 43.04 75.4358 43.344C76.2358 43.632 77.1158 43.776 78.0758 43.776C79.0358 43.776 79.8598 43.664 80.5478 43.44C81.2518 43.216 81.8598 42.968 82.3718 42.696C82.8998 42.424 83.3558 42.176 83.7398 41.952C84.1398 41.728 84.5238 41.616 84.8918 41.616C85.3878 41.616 85.7558 41.8 85.9958 42.168L87.6998 44.328C87.0438 45.096 86.3078 45.744 85.4918 46.272C84.6758 46.784 83.8198 47.2 82.9238 47.52C82.0438 47.824 81.1398 48.04 80.2118 48.168C79.2998 48.296 78.4118 48.36 77.5478 48.36C75.8358 48.36 74.2438 48.08 72.7718 47.52C71.2998 46.944 70.0198 46.104 68.9318 45C67.8438 43.88 66.9878 42.504 66.3638 40.872C65.7398 39.224 65.4277 37.32 65.4277 35.16C65.4277 33.48 65.6998 31.904 66.2438 30.432C66.7878 28.944 67.5638 27.656 68.5718 26.568C69.5958 25.464 70.8358 24.592 72.2918 23.952C73.7638 23.312 75.4198 22.992 77.2598 22.992C78.8118 22.992 80.2438 23.24 81.5558 23.736C82.8678 24.232 83.9958 24.96 84.9398 25.92C85.8838 26.864 86.6198 28.032 87.1478 29.424C87.6918 30.8 87.9637 32.376 87.9637 34.152C87.9637 35.048 87.8678 35.656 87.6758 35.976C87.4838 36.28 87.1158 36.432 86.5718 36.432H71.3318ZM107.868 29.664C107.196 28.848 106.46 28.272 105.66 27.936C104.876 27.6 104.028 27.432 103.116 27.432C102.22 27.432 101.412 27.6 100.692 27.936C99.9724 28.272 99.3564 28.784 98.8444 29.472C98.3324 30.144 97.9404 31.008 97.6684 32.064C97.3964 33.104 97.2604 34.336 97.2604 35.76C97.2604 37.2 97.3724 38.424 97.5964 39.432C97.8364 40.424 98.1724 41.24 98.6044 41.88C99.0364 42.504 99.5644 42.96 100.188 43.248C100.812 43.52 101.508 43.656 102.276 43.656C103.508 43.656 104.556 43.4 105.42 42.888C106.284 42.376 107.1 41.648 107.868 40.704V29.664ZM113.796 12.336V48H110.172C109.388 48 108.892 47.64 108.684 46.92L108.18 44.544C107.188 45.68 106.044 46.6 104.748 47.304C103.468 48.008 101.972 48.36 100.26 48.36C98.9164 48.36 97.6844 48.08 96.5644 47.52C95.4444 46.96 94.4764 46.152 93.6604 45.096C92.8604 44.024 92.2364 42.704 91.7884 41.136C91.3564 39.568 91.1404 37.776 91.1404 35.76C91.1404 33.936 91.3884 32.24 91.8844 30.672C92.3804 29.104 93.0924 27.744 94.0204 26.592C94.9484 25.44 96.0604 24.544 97.3564 23.904C98.6524 23.248 100.108 22.92 101.724 22.92C103.1 22.92 104.276 23.136 105.252 23.568C106.228 24 107.1 24.584 107.868 25.32V12.336H113.796ZM125.647 12.336V48H119.719V12.336H125.647ZM147.417 32.856C147.417 32.088 147.305 31.368 147.081 30.696C146.873 30.008 146.553 29.408 146.121 28.896C145.689 28.384 145.137 27.984 144.465 27.696C143.809 27.392 143.041 27.24 142.161 27.24C140.449 27.24 139.097 27.728 138.105 28.704C137.129 29.68 136.505 31.064 136.233 32.856H147.417ZM136.113 36.432C136.209 37.696 136.433 38.792 136.785 39.72C137.137 40.632 137.601 41.392 138.177 42C138.753 42.592 139.433 43.04 140.217 43.344C141.017 43.632 141.897 43.776 142.857 43.776C143.817 43.776 144.641 43.664 145.329 43.44C146.033 43.216 146.641 42.968 147.153 42.696C147.681 42.424 148.137 42.176 148.521 41.952C148.921 41.728 149.305 41.616 149.673 41.616C150.169 41.616 150.537 41.8 150.777 42.168L152.481 44.328C151.825 45.096 151.089 45.744 150.273 46.272C149.457 46.784 148.601 47.2 147.705 47.52C146.825 47.824 145.921 48.04 144.993 48.168C144.081 48.296 143.193 48.36 142.329 48.36C140.617 48.36 139.025 48.08 137.553 47.52C136.081 46.944 134.801 46.104 133.713 45C132.625 43.88 131.769 42.504 131.145 40.872C130.521 39.224 130.209 37.32 130.209 35.16C130.209 33.48 130.481 31.904 131.025 30.432C131.569 28.944 132.345 27.656 133.353 26.568C134.377 25.464 135.617 24.592 137.073 23.952C138.545 23.312 140.201 22.992 142.041 22.992C143.593 22.992 145.025 23.24 146.337 23.736C147.649 24.232 148.777 24.96 149.721 25.92C150.665 26.864 151.401 28.032 151.929 29.424C152.473 30.8 152.745 32.376 152.745 34.152C152.745 35.048 152.649 35.656 152.457 35.976C152.265 36.28 151.897 36.432 151.353 36.432H136.113ZM170.202 37.488C168.49 37.568 167.05 37.72 165.882 37.944C164.714 38.152 163.778 38.424 163.074 38.76C162.37 39.096 161.866 39.488 161.562 39.936C161.258 40.384 161.106 40.872 161.106 41.4C161.106 42.44 161.41 43.184 162.018 43.632C162.642 44.08 163.45 44.304 164.442 44.304C165.658 44.304 166.706 44.088 167.586 43.656C168.482 43.208 169.354 42.536 170.202 41.64V37.488ZM156.618 26.808C159.45 24.216 162.858 22.92 166.842 22.92C168.282 22.92 169.57 23.16 170.706 23.64C171.842 24.104 172.802 24.76 173.586 25.608C174.37 26.44 174.962 27.44 175.362 28.608C175.778 29.776 175.986 31.056 175.986 32.448V48H173.298C172.738 48 172.306 47.92 172.002 47.76C171.698 47.584 171.458 47.24 171.282 46.728L170.754 44.952C170.13 45.512 169.522 46.008 168.93 46.44C168.338 46.856 167.722 47.208 167.082 47.496C166.442 47.784 165.754 48 165.018 48.144C164.298 48.304 163.498 48.384 162.618 48.384C161.578 48.384 160.618 48.248 159.738 47.976C158.858 47.688 158.098 47.264 157.458 46.704C156.818 46.144 156.322 45.448 155.97 44.616C155.618 43.784 155.442 42.816 155.442 41.712C155.442 41.088 155.546 40.472 155.754 39.864C155.962 39.24 156.298 38.648 156.762 38.088C157.242 37.528 157.858 37 158.61 36.504C159.362 36.008 160.282 35.576 161.37 35.208C162.474 34.84 163.754 34.544 165.21 34.32C166.666 34.08 168.33 33.936 170.202 33.888V32.448C170.202 30.8 169.85 29.584 169.146 28.8C168.442 28 167.426 27.6 166.098 27.6C165.138 27.6 164.338 27.712 163.698 27.936C163.074 28.16 162.522 28.416 162.042 28.704C161.562 28.976 161.122 29.224 160.722 29.448C160.338 29.672 159.906 29.784 159.426 29.784C159.01 29.784 158.658 29.68 158.37 29.472C158.082 29.248 157.85 28.992 157.674 28.704L156.618 26.808ZM182.875 48V27.84L180.739 27.504C180.275 27.408 179.899 27.248 179.611 27.024C179.339 26.784 179.203 26.448 179.203 26.016V23.592H182.875V21.768C182.875 20.36 183.083 19.096 183.499 17.976C183.931 16.856 184.539 15.904 185.323 15.12C186.123 14.336 187.091 13.736 188.227 13.32C189.363 12.904 190.643 12.696 192.067 12.696C193.203 12.696 194.259 12.848 195.235 13.152L195.115 16.128C195.099 16.352 195.035 16.536 194.923 16.68C194.811 16.808 194.659 16.912 194.467 16.992C194.291 17.056 194.083 17.104 193.843 17.136C193.603 17.152 193.347 17.16 193.075 17.16C192.371 17.16 191.739 17.24 191.179 17.4C190.635 17.544 190.171 17.808 189.787 18.192C189.403 18.56 189.107 19.056 188.899 19.68C188.707 20.288 188.611 21.048 188.611 21.96V23.592H195.019V27.816H188.803V48H182.875Z" fill="black"/>
<path d="M212.794 45.0264L206 49L216.5 41L218.5 39.5C225.923 32.8097 231.833 25.42 233.5 15.5L229.495 21.6106C227.335 26.178 225.412 29.7876 221.701 33.6645L220.632 35.7708C219.887 37.2373 218.816 38.5132 217.5 39.5L215.5 41L213.907 35.3628C212.8 31.759 212.937 28.2273 213.907 24.5841C214.335 23.0139 215.763 22.354 216.876 23.469L217.619 24.2124L218.732 19.0089C219.025 17.5433 219.479 16.2196 220.217 14.9203L220.959 14.221C221.859 13.969 222.822 14.2796 223.406 15.0098L223.928 15.6637C227.01 10.6262 231.821 6.84745 237.66 6H238.031C237.478 8.03124 237.66 10.8319 238.031 13.0619C238.217 14.177 238.402 14.9204 238.773 16.0354C239.02 17.0249 239.253 18.0276 239.297 19.0466C239.313 19.3974 239.279 19.7566 239.144 20.4956L238.402 23.0973C240.258 22.7257 241 23.469 241 25.3274L240.899 26.4425L240.258 27.9292L239.887 28.6726C239.516 29.416 239.144 29.7876 239.144 29.7876L238.031 30.9027L235.062 33.5044L235.873 33.6645C237.504 34.0187 238.031 35.7345 236.918 37.2212L236.546 37.5929C231.646 42.501 222.072 44.6549 217.619 42.0531L212.794 45.0264Z" fill="#1E3A8A"/>
<path d="M208.5 48.0463L206 49L218.247 40.823L219.361 40.0796C226.784 33.3894 231.055 26.5837 232.722 16.6637L230.495 22.6106C228.335 27.178 226.412 30.7876 222.701 34.6645L220.249 37.2754C219.658 37.9048 219.014 38.4819 218.323 39.0005L216.392 40.4513L214.907 36.3628C213.8 32.759 213.937 29.2273 214.907 25.5841C215.335 24.0139 216.763 23.354 217.876 24.469L218.619 25.2124L219.732 20.0089C220.025 18.5433 220.479 17.2196 221.217 15.9203L221.959 15.221C222.859 14.969 223.822 15.2796 224.406 16.0098L224.928 16.6637C228.01 11.6262 232.821 7.84745 238.66 7H239.031C238.478 9.03124 238.66 11.8319 239.031 14.0619C239.217 15.177 239.402 15.9204 239.773 17.0354C240.02 18.0249 240.253 19.0276 240.297 20.0466C240.313 20.3974 240.279 20.7566 240.144 21.4956L239.402 24.0973C241.258 23.7257 242 24.469 242 26.3274L241.899 27.4425L241.258 28.9292L240.887 29.6726C240.516 30.416 240.144 30.7876 240.144 30.7876L239.031 31.9027L236.062 34.5044L236.873 34.6645C238.504 35.0187 239.031 36.7345 237.918 38.2212L237.546 38.5929C232.646 43.501 223.072 45.6549 218.619 43.0531C215.41 45.0309 212.022 46.7027 208.5 48.0463Z" fill="#0F766E"/>
</svg>
